{
    "asset" : {
        "generator" : "Khronos glTF Blender I/O v1.1.46",
        "version" : "2.0"
    },
    "scene" : 0,
    "scenes" : [
        {
            "name" : "Scene",
            "nodes" : [
                0,
                1,
                5
            ]
        }
    ],
    "nodes" : [
        {
            "name" : "Light",
            "rotation" : [
                0.16907575726509094,
                0.7558803558349609,
                -0.27217137813568115,
                0.570947527885437
            ],
            "translation" : [
                4.076245307922363,
                5.903861999511719,
                -1.0054539442062378
            ]
        },
        {
            "name" : "Camera",
            "rotation" : [
                0.483536034822464,
                0.33687159419059753,
                -0.20870360732078552,
                0.7804827094078064
            ],
            "translation" : [
                7.358891487121582,
                4.958309173583984,
                6.925790786743164
            ]
        },
        {
            "mesh" : 0,
            "name" : "Object_3",
            "rotation" : [
                0,
                0.9637004733085632,
                0,
                0.2669857442378998
            ],
            "translation" : [
                -4.400041580200195,
                0,
                -6.256606578826904
            ]
        },
        {
            "children" : [
                2
            ],
            "name" : "StickMan.stl.cleaner.materialmerger.gles"
        },
        {
            "children" : [
                3
            ],
            "name" : "RootNode (model correction matrix)",
            "rotation" : [
                0,
                0.8744105696678162,
                0,
                0.48518675565719604
            ],
            "translation" : [
                -6.409479141235352,
                0,
                -25.2373046875
            ]
        },
        {
            "children" : [
                4
            ],
            "name" : "RootNode (gltf orientation matrix)",
            "scale" : [
                0.1698729544878006,
                0.16987298429012299,
                0.16987298429012299
            ],
            "translation" : [
                0,
                -16.376821517944336,
                2.9533748626708984
            ]
        }
    ],
    "materials" : [
        {
            "doubleSided" : true,
            "name" : "Scene_-_Root",
            "pbrMetallicRoughness" : {}
        }
    ],
    "meshes" : [
        {
            "name" : "Mesh_0",
            "primitives" : [
                {
                    "attributes" : {
                        "POSITION" : 0,
                        "NORMAL" : 1
                    },
                    "indices" : 2,
                    "material" : 0
                }
            ]
        }
    ],
    "accessors" : [
        {
            "bufferView" : 0,
            "componentType" : 5126,
            "count" : 9262,
            "max" : [
                13.65999984741211,
                183,
                56.9370002746582
            ],
            "min" : [
                -34.073001861572266,
                5,
                -78.61799621582031
            ],
            "type" : "VEC3"
        },
        {
            "bufferView" : 1,
            "componentType" : 5126,
            "count" : 9262,
            "type" : "VEC3"
        },
        {
            "bufferView" : 2,
            "componentType" : 5123,
            "count" : 44124,
            "type" : "SCALAR"
        }
    ],
    "bufferViews" : [
        {
            "buffer" : 0,
            "byteLength" : 111144,
            "byteOffset" : 0
        },
        {
            "buffer" : 0,
            "byteLength" : 111144,
            "byteOffset" : 111144
        },
        {
            "buffer" : 0,
            "byteLength" : 88248,
            "byteOffset" : 222288
        }
    ],
    "buffers" : [
        {
            "byteLength" : 310536,
            "uri" : "data:application/octet-stream;base64,"
        }
    ]
}
